<svg width="24" height="24" viewBox="0 0 24 24" fill="none" xmlns="http://www.w3.org/2000/svg">
<g clip-path="url(#clip0_80_61600)">
<path d="M12 24C18.6274 24 24 18.6274 24 12C24 5.37258 18.6274 0 12 0C5.37258 0 0 5.37258 0 12C0 18.6274 5.37258 24 12 24Z" fill="#F0F0F0"/>
<path d="M2.48032 4.6936C1.53771 5.91999 0.826945 7.33351 0.413086 8.86909H6.6558L2.48032 4.6936Z" fill="#0052B4"/>
<path d="M23.5864 8.86905C23.1725 7.33351 22.4617 5.92 21.5191 4.6936L17.3438 8.86905H23.5864Z" fill="#0052B4"/>
<path d="M0.413086 15.1304C0.826992 16.6659 1.53776 18.0794 2.48032 19.3058L6.65566 15.1304H0.413086Z" fill="#0052B4"/>
<path d="M19.3053 2.48037C18.0789 1.53776 16.6655 0.826992 15.1299 0.413086V6.65576L19.3053 2.48037Z" fill="#0052B4"/>
<path d="M4.69336 21.5196C5.91975 22.4622 7.33327 23.173 8.8688 23.5869V17.3442L4.69336 21.5196Z" fill="#0052B4"/>
<path d="M8.86875 0.413086C7.33322 0.826992 5.9197 1.53776 4.69336 2.48032L8.86875 6.65571V0.413086Z" fill="#0052B4"/>
<path d="M15.1299 23.5869C16.6654 23.173 18.0789 22.4622 19.3053 21.5196L15.1299 17.3442V23.5869Z" fill="#0052B4"/>
<path d="M17.3438 15.1304L21.5191 19.3058C22.4617 18.0795 23.1725 16.6659 23.5864 15.1304H17.3438Z" fill="#0052B4"/>
<path d="M23.8984 10.4348H13.5653H13.5653V0.101578C13.0529 0.034875 12.5305 0 12 0C11.4694 0 10.9471 0.034875 10.4348 0.101578V10.4347V10.4347H0.101578C0.034875 10.9471 0 11.4695 0 12C0 12.5306 0.034875 13.0529 0.101578 13.5652H10.4347H10.4347V23.8984C10.9471 23.9651 11.4694 24 12 24C12.5305 24 13.0529 23.9652 13.5652 23.8984V13.5653V13.5653H23.8984C23.9651 13.0529 24 12.5306 24 12C24 11.4695 23.9651 10.9471 23.8984 10.4348Z" fill="#D80027"/>
<path d="M15.1299 15.1304L20.4847 20.4852C20.731 20.239 20.9659 19.9817 21.1901 19.7148L16.6056 15.1304H15.1299V15.1304Z" fill="#D80027"/>
<path d="M8.8695 15.1304H8.86941L3.51465 20.4851C3.76084 20.7314 4.01823 20.9664 4.28504 21.1905L8.8695 16.6059V15.1304Z" fill="#D80027"/>
<path d="M8.86976 8.86912V8.86903L3.51495 3.51416C3.26866 3.76035 3.03373 4.01774 2.80957 4.28455L7.39409 8.86907H8.86976V8.86912Z" fill="#D80027"/>
<path d="M15.1299 8.87005L20.4847 3.51514C20.2386 3.26886 19.9812 3.03392 19.7144 2.80981L15.1299 7.39433V8.87005Z" fill="#D80027"/>
</g>
<defs>
<clipPath id="clip0_80_61600">
<rect width="24" height="24" fill="white"/>
</clipPath>
</defs>
</svg>
