<svg width="20" height="19" viewBox="0 0 20 19" fill="none" xmlns="http://www.w3.org/2000/svg">
    <path
        d="M8.51655 1.36206C8.98993 -0.0948441 11.0511 -0.0948441 11.5244 1.36206L12.6832 4.9285C12.8949 5.58004 13.5021 6.02118 14.1872 6.02118H17.9372C19.469 6.02118 20.106 7.98143 18.8666 8.88185L15.8329 11.086C15.2786 11.4887 15.0467 12.2025 15.2584 12.854L16.4172 16.4204C16.8906 17.8774 15.2231 19.0889 13.9838 18.1884L10.95 15.9843C10.3957 15.5816 9.64525 15.5816 9.09101 15.9843L6.05722 18.1884C4.8179 19.0889 3.15041 17.8774 3.62379 16.4205L4.78259 12.854C4.99429 12.2025 4.76238 11.4887 4.20814 11.086L1.17435 8.88185C-0.0649707 7.98143 0.571954 6.02118 2.10384 6.02118H5.8538C6.53888 6.02118 7.14605 5.58004 7.35775 4.9285L8.51655 1.36206Z"
        fill="#079307" />
</svg>