<svg width="21" height="21" viewBox="0 0 21 21" fill="none" xmlns="http://www.w3.org/2000/svg">
    <g clip-path="url(#clip0_368_2288)">
        <path
            d="M10.5391 19.5488C15.7167 19.5488 19.9141 15.3515 19.9141 10.1738C19.9141 4.99616 15.7167 0.798828 10.5391 0.798828C5.36139 0.798828 1.16406 4.99616 1.16406 10.1738C1.16406 15.3515 5.36139 19.5488 10.5391 19.5488Z"
            fill="#F42F4C" />
        <path
            d="M7.81934 13.9238L8.85059 10.8301L6.16309 8.89258H9.50684L10.5381 5.79883L11.5693 8.89258H14.9131L12.1943 10.7988L13.2256 13.8926L10.5381 12.0176L7.81934 13.9238ZM11.1006 11.6113L11.9443 12.2051L11.6318 11.2363L11.1006 11.6113ZM9.44434 11.2363L9.13184 12.2051L9.97559 11.6113L9.44434 11.2363ZM9.66309 10.5801L10.5381 11.2051L11.4131 10.5801L11.0693 9.58008H9.97559L9.66309 10.5801ZM8.25684 9.58008L9.10059 10.1738L9.28809 9.58008H8.25684ZM11.9756 10.1738L12.8193 9.58008H11.7881L11.9756 10.1738ZM10.2256 8.89258H10.8506L10.5381 7.92383L10.2256 8.89258Z"
            fill="#4F682E" />
    </g>
    <defs>
        <clipPath id="clip0_368_2288">
            <rect width="20" height="20" fill="white" transform="translate(0.539062 0.174805)" />
        </clipPath>
    </defs>
</svg>