<svg width="108" height="78" viewBox="0 0 108 78" fill="none" xmlns="http://www.w3.org/2000/svg">
<path d="M48.8131 0.107919C52.779 -0.470669 57.5983 1.34539 60.6087 3.92417C64.966 7.65673 66.2899 12.0545 66.7571 17.5049C69.957 19.6972 71.9931 22.2588 74.1686 25.3936C74.8917 24.4612 75.6276 23.5403 76.4022 22.6493C81.1563 17.1812 88.7921 14.0053 95.925 16.6319C100.185 18.1667 103.655 21.3402 105.562 25.4461C113.677 43.1708 90.9338 63.1749 78.6747 73.0006C76.9666 74.3699 73.3924 77.1708 71.5824 78C69.0753 76.6954 61.1586 68.8962 59.0644 66.7163C54.8236 62.2351 51.2329 57.9532 47.8427 52.7774C45.7037 54.9342 38.0277 62.5264 35.7153 63.5627C35.0054 63.2593 32.1992 61.1879 31.4424 60.6237C22.2816 53.8027 13.3793 45.6825 6.68042 36.3991C2.25134 30.2607 -1.06995 22.9682 0.321145 15.2679C1.11386 10.708 3.71244 6.66047 7.52901 4.04149C11.0816 1.61782 15.4523 0.706224 19.6777 1.5074C25.1293 2.54572 30.015 6.5379 33.0889 11.0284C33.7932 9.84807 34.5822 8.72047 35.4498 7.65433C39.017 3.28775 43.1702 0.679059 48.8131 0.107919Z" fill="#09AF0D"/>
<path d="M89.5428 17.3059C90.7226 17.1969 92.2936 17.2844 93.4428 17.5319C97.4163 18.3875 100.612 20.6443 102.893 23.928C105.63 27.8717 106.302 33.0083 105.249 37.6337C102.012 51.852 83.3334 68.3596 71.6367 76.1742C70.3397 75.2946 68.3418 73.5112 67.1273 72.4159C63.2436 68.9358 59.5907 65.2071 56.1917 61.2527C53.7008 58.3751 50.996 54.8621 48.9714 51.6132C55.7463 44.4975 63.3763 34.3866 65.9251 24.7885C66.3975 23.0097 66.5844 21.2112 66.7299 19.3837C69.3153 21.3157 71.6385 24.142 73.1964 26.9615C71.5443 29.6405 68.3937 36.7728 72.7295 38.6788C75.6622 39.9691 77.4423 36.603 77.1496 33.9793C76.8308 31.1223 76.2326 29.6033 75.0177 27.0148C75.4992 26.2134 76.0451 25.4526 76.6501 24.7398C80.0632 20.6521 84.1013 17.8054 89.5428 17.3059Z" fill="white"/>
<path d="M48.9262 1.64117C58.1615 0.975388 64.1797 7.86871 65.1383 16.4985C63.7428 15.8669 62.5353 15.3755 61.0358 15.0232C56.713 13.977 52.1506 14.7292 48.3925 17.1076C43.2208 20.3601 40.6252 26.2395 40.5281 32.1999C40.416 39.0761 43.36 45.7306 46.9533 51.4453C43.121 55.4687 39.9544 58.2915 35.6905 61.7858C28.4708 56.6627 22.3993 51.6633 16.2157 45.2717C8.98656 37.8821 0.177482 27.1652 1.74024 16.1138C2.91508 7.80661 10.581 1.52144 19.0555 2.95641C24.7821 3.92605 29.0234 7.93805 32.2423 12.4959C31.6751 13.6284 31.1946 14.8022 30.8048 16.0073C30.1583 18.0619 29.686 20.8848 30.7227 22.8745C31.9495 25.2292 35.8605 24.7574 36.4827 22.104C37.2844 18.6845 35.6962 15.341 34.0662 12.4458C34.8704 11.0637 35.7803 9.74579 36.7879 8.50394C39.984 4.63686 43.8268 2.11734 48.9262 1.64117Z" fill="white"/>
<path d="M55.956 16.2116C59.1192 15.9931 62.5245 16.6682 65.1885 18.4349C65.1896 29.0419 56.5575 40.9122 49.6767 48.5197C49.1231 49.1802 48.6962 49.6622 48.0917 50.2855C45.1739 45.7834 42.7809 40.3338 42.1984 34.953C41.2185 25.8996 46.1119 17.1154 55.956 16.2116Z" fill="white"/>
<path d="M33.1612 14.165C34.3726 15.4674 35.6371 19.759 35.0067 21.5277C34.7198 22.3325 34.4444 22.56 33.7394 22.9101C29.9215 23.1751 32.3155 16.0217 33.1612 14.165Z" fill="white"/>
<path d="M74.0127 28.7144C74.6677 29.2407 75.4136 32.1889 75.5178 33.1112C75.6988 34.713 75.8822 37.131 73.7728 37.3994C70.3749 36.7258 72.9617 30.5927 74.0127 28.7144Z" fill="white"/>
</svg>
